<svg id="visual" viewBox="0 0 960 540" width="960" height="540" xmlns="http://www.w3.org/2000/svg" xmlns:xlink="http://www.w3.org/1999/xlink" version="1.1"><rect x="0" y="0" width="960" height="540" fill="#001220"></rect><path d="M0 415L26.7 411.3C53.3 407.7 106.7 400.3 160 396.8C213.3 393.3 266.7 393.7 320 395.7C373.3 397.7 426.7 401.3 480 404.2C533.3 407 586.7 409 640 409C693.3 409 746.7 407 800 404.5C853.3 402 906.7 399 933.3 397.5L960 396L960 541L933.3 541C906.7 541 853.3 541 800 541C746.7 541 693.3 541 640 541C586.7 541 533.3 541 480 541C426.7 541 373.3 541 320 541C266.7 541 213.3 541 160 541C106.7 541 53.3 541 26.7 541L0 541Z" fill="#4facf7"></path><path d="M0 435L26.7 435C53.3 435 106.7 435 160 433.8C213.3 432.7 266.7 430.3 320 432C373.3 433.7 426.7 439.3 480 438.2C533.3 437 586.7 429 640 429C693.3 429 746.7 437 800 440C853.3 443 906.7 441 933.3 440L960 439L960 541L933.3 541C906.7 541 853.3 541 800 541C746.7 541 693.3 541 640 541C586.7 541 533.3 541 480 541C426.7 541 373.3 541 320 541C266.7 541 213.3 541 160 541C106.7 541 53.3 541 26.7 541L0 541Z" fill="#2b9dfc"></path><path d="M0 450L26.7 450.3C53.3 450.7 106.7 451.3 160 453.7C213.3 456 266.7 460 320 459.7C373.3 459.3 426.7 454.7 480 454.7C533.3 454.7 586.7 459.3 640 461.5C693.3 463.7 746.7 463.3 800 461.5C853.3 459.7 906.7 456.3 933.3 454.7L960 453L960 541L933.3 541C906.7 541 853.3 541 800 541C746.7 541 693.3 541 640 541C586.7 541 533.3 541 480 541C426.7 541 373.3 541 320 541C266.7 541 213.3 541 160 541C106.7 541 53.3 541 26.7 541L0 541Z" fill="#008cff"></path><path d="M0 477L26.7 478.3C53.3 479.7 106.7 482.3 160 482.2C213.3 482 266.7 479 320 478.3C373.3 477.7 426.7 479.3 480 480C533.3 480.7 586.7 480.3 640 481.5C693.3 482.7 746.7 485.3 800 484C853.3 482.7 906.7 477.3 933.3 474.7L960 472L960 541L933.3 541C906.7 541 853.3 541 800 541C746.7 541 693.3 541 640 541C586.7 541 533.3 541 480 541C426.7 541 373.3 541 320 541C266.7 541 213.3 541 160 541C106.7 541 53.3 541 26.7 541L0 541Z" fill="#007aff"></path><path d="M0 504L26.7 503.3C53.3 502.7 106.7 501.3 160 500.2C213.3 499 266.7 498 320 498.3C373.3 498.7 426.7 500.3 480 501C533.3 501.7 586.7 501.3 640 500.7C693.3 500 746.7 499 800 498.5C853.3 498 906.7 498 933.3 498L960 498L960 541L933.3 541C906.7 541 853.3 541 800 541C746.7 541 693.3 541 640 541C586.7 541 533.3 541 480 541C426.7 541 373.3 541 320 541C266.7 541 213.3 541 160 541C106.7 541 53.3 541 26.7 541L0 541Z" fill="#0066ff"></path></svg>